<?xml version="1.0" encoding="UTF-8" standalone="no"?>
<!DOCTYPE svg PUBLIC "-//W3C//DTD SVG 1.1//EN" "http://www.w3.org/Graphics/SVG/1.1/DTD/svg11.dtd">
<svg width="100%" height="100%" viewBox="0 0 32 32" version="1.1" xmlns="http://www.w3.org/2000/svg" xmlns:xlink="http://www.w3.org/1999/xlink" xml:space="preserve" xmlns:serif="http://www.serif.com/" style="fill-rule:evenodd;clip-rule:evenodd;stroke-linejoin:round;stroke-miterlimit:2;">
    <g transform="matrix(0.666667,0,0,0.666667,-41.3333,0)">
        <rect id="Color" x="62" y="0" width="48" height="48" style="fill:none;"/>
        <clipPath id="_clip1">
            <rect id="Color1" serif:id="Color" x="62" y="0" width="48" height="48"/>
        </clipPath>
        <g clip-path="url(#_clip1)">
            <g transform="matrix(1,0,0,1,62,-3.73795e-07)">
                <rect x="0" y="0" width="48" height="48" style="fill:none;"/>
            </g>
            <g transform="matrix(1.3125,0,0,1.31241,54.5,-7.49785)">
                <path d="M32,24C32,20.534 29.768,17.463 26.472,16.392C28.572,17.074 30.83,15.923 31.512,13.823C32.195,11.724 31.044,9.465 28.944,8.783C35.537,10.925 40,17.068 40,24C40,26.208 38.208,28 36,28C33.792,28 32,26.208 32,24Z" style="fill:rgb(58,12,163);"/>
                <path d="M32,24C32,20.534 29.768,17.463 26.472,16.392C28.572,17.074 30.83,15.923 31.512,13.823C32.195,11.724 31.044,9.465 28.944,8.783C35.537,10.925 40,17.068 40,24C40,26.208 38.208,28 36,28C33.792,28 32,26.208 32,24ZM28.935,16.991C31.173,18.567 32.571,21.16 32.571,24C32.571,25.892 34.108,27.429 36,27.429C37.892,27.429 39.429,25.892 39.429,24C39.429,18.479 36.492,13.477 31.889,10.741C32.328,11.734 32.418,12.887 32.056,14C31.565,15.511 30.359,16.592 28.935,16.991Z" style="fill:rgb(58,12,163);"/>
            </g>
            <g transform="matrix(1.3125,0,0,1.31241,54.5,-7.49785)">
                <path d="M26.472,16.392C23.176,15.321 19.565,16.494 17.528,19.298C18.825,17.512 18.429,15.008 16.643,13.711C14.857,12.413 12.353,12.809 11.056,14.595C15.13,8.988 22.352,6.641 28.944,8.783C31.044,9.465 32.195,11.724 31.512,13.823C30.83,15.923 28.572,17.074 26.472,16.392Z" style="fill:rgb(67,97,238);"/>
                <path d="M26.472,16.392C23.176,15.321 19.565,16.494 17.528,19.298C18.825,17.512 18.429,15.008 16.643,13.711C14.857,12.413 12.353,12.809 11.056,14.595C15.13,8.988 22.352,6.641 28.944,8.783C31.044,9.465 32.195,11.724 31.512,13.823C30.83,15.923 28.572,17.074 26.472,16.392ZM18.859,17.141C21.049,15.499 23.948,14.97 26.649,15.848C28.448,16.433 30.384,15.446 30.969,13.647C31.554,11.847 30.567,9.911 28.768,9.327C23.517,7.62 17.852,8.867 13.828,12.4C14.908,12.289 16.032,12.56 16.979,13.248C18.264,14.182 18.92,15.663 18.859,17.141Z" style="fill:rgb(67,97,238);"/>
            </g>
            <g transform="matrix(1.3125,0,0,1.31241,54.5,-7.49785)">
                <path d="M17.528,19.298C15.491,22.102 15.491,25.898 17.528,28.702C16.23,26.916 13.727,26.52 11.941,27.817C10.155,29.115 9.758,31.619 11.056,33.405C6.981,27.797 6.981,20.203 11.056,14.595C12.353,12.809 14.857,12.413 16.643,13.711C18.429,15.008 18.825,17.512 17.528,19.298Z" style="fill:rgb(76,201,240);"/>
                <path d="M17.528,19.298C15.491,22.102 15.491,25.898 17.528,28.702C16.23,26.916 13.727,26.52 11.941,27.817C10.155,29.115 9.758,31.619 11.056,33.405C6.981,27.797 6.981,20.203 11.056,14.595C12.353,12.809 14.857,12.413 16.643,13.711C18.429,15.008 18.825,17.512 17.528,19.298ZM15.888,26.77C15.004,24.18 15.396,21.26 17.066,18.962C18.178,17.431 17.838,15.285 16.307,14.173C14.776,13.061 12.63,13.4 11.518,14.931C8.273,19.398 7.708,25.171 9.824,30.09C10.053,29.028 10.658,28.043 11.605,27.355C12.89,26.421 14.501,26.255 15.888,26.77Z" style="fill:rgb(76,201,240);"/>
            </g>
            <g transform="matrix(1.3125,0,0,1.31241,54.5,-7.49785)">
                <path d="M28.944,39.217C26.845,39.899 24.586,38.748 23.904,36.649C23.222,34.549 24.373,32.291 26.472,31.608C29.768,30.537 32,27.466 32,24C32,26.208 33.792,28 36,28C38.208,28 40,26.208 40,24C40,30.932 35.537,37.075 28.944,39.217Z" style="fill:rgb(114,9,183);"/>
                <path d="M28.944,39.217C26.845,39.899 24.586,38.748 23.904,36.649C23.222,34.549 24.373,32.291 26.472,31.608C29.768,30.537 32,27.466 32,24C32,26.208 33.792,28 36,28C38.208,28 40,26.208 40,24C40,30.932 35.537,37.075 28.944,39.217ZM32.191,26.527C31.384,29.143 29.35,31.274 26.649,32.152C24.849,32.737 23.863,34.672 24.447,36.472C25.032,38.272 26.968,39.258 28.768,38.673C34.019,36.967 37.869,32.629 39.048,27.406C38.239,28.131 37.171,28.571 36,28.571C34.411,28.571 33.01,27.759 32.191,26.527Z" style="fill:rgb(114,9,183);"/>
            </g>
            <g transform="matrix(1.3125,0,0,1.31241,54.5,-7.49785)">
                <path d="M11.056,33.405C9.758,31.619 10.155,29.115 11.941,27.817C13.727,26.52 16.23,26.916 17.528,28.702C19.565,31.506 23.176,32.679 26.472,31.608C24.373,32.291 23.222,34.549 23.904,36.649C24.586,38.748 26.845,39.899 28.944,39.217C22.352,41.359 15.13,39.012 11.056,33.405Z" style="fill:rgb(247,37,133);"/>
                <path d="M11.056,33.405C9.758,31.619 10.155,29.115 11.941,27.817C13.727,26.52 16.23,26.916 17.528,28.702C19.565,31.506 23.176,32.679 26.472,31.608C24.373,32.291 23.222,34.549 23.904,36.649C24.586,38.748 26.845,39.899 28.944,39.217C22.352,41.359 15.13,39.012 11.056,33.405ZM24.128,32.571C21.391,32.612 18.735,31.336 17.066,29.038C15.953,27.507 13.807,27.167 12.277,28.28C10.746,29.392 10.406,31.538 11.518,33.069C14.763,37.535 20.079,39.856 25.411,39.364C24.472,38.818 23.722,37.939 23.361,36.825C22.87,35.314 23.209,33.731 24.128,32.571Z" style="fill:rgb(247,37,133);"/>
            </g>
        </g>
    </g>
</svg>
